name D:\school\WTK\thesis\model\3dpredictsim\Results\MidTarsalJoint\Fal_s1_bCst_PF_Natali2010_ls150_MT_k200_d020_MTP_T5_ig24.mot
datacolumns 128
datarows 4
range 0.00000000 0.03435814
endheader
time	pelvis_tilt	pelvis_list	pelvis_rotation	pelvis_tx	pelvis_ty	pelvis_tz	hip_flexion_l	hip_adduction_l	hip_rotation_l	hip_flexion_r	hip_adduction_r	hip_rotation_r	knee_angle_l	knee_angle_r	ankle_angle_l	ankle_angle_r	subtalar_angle_l	subtalar_angle_r	mtj_angle_l	mtj_angle_r	mtp_angle_l	mtp_angle_r	lumbar_extension	lumbar_bending	lumbar_rotation	arm_flex_l	arm_add_l	arm_rot_l	arm_flex_r	arm_add_r	arm_rot_r	elbow_flex_l	elbow_flex_r	pro_sup_l	pro_sup_r	glut_med1_l/activation	glut_med2_l/activation	glut_med3_l/activation	glut_min1_l/activation	glut_min2_l/activation	glut_min3_l/activation	semimem_l/activation	semiten_l/activation	bifemlh_l/activation	bifemsh_l/activation	sar_l/activation	add_long_l/activation	add_brev_l/activation	add_mag1_l/activation	add_mag2_l/activation	add_mag3_l/activation	tfl_l/activation	pect_l/activation	grac_l/activation	glut_max1_l/activation	glut_max2_l/activation	glut_max3_l/activation	iliacus_l/activation	psoas_l/activation	quad_fem_l/activation	gem_l/activation	peri_l/activation	rect_fem_l/activation	vas_med_l/activation	vas_int_l/activation	vas_lat_l/activation	med_gas_l/activation	lat_gas_l/activation	soleus_l/activation	tib_post_l/activation	flex_dig_l/activation	flex_hal_l/activation	tib_ant_l/activation	per_brev_l/activation	per_long_l/activation	per_tert_l/activation	ext_dig_l/activation	ext_hal_l/activation	ercspn_l/activation	intobl_l/activation	extobl_l/activation	glut_med1_r/activation	glut_med2_r/activation	glut_med3_r/activation	glut_min1_r/activation	glut_min2_r/activation	glut_min3_r/activation	semimem_r/activation	semiten_r/activation	bifemlh_r/activation	bifemsh_r/activation	sar_r/activation	add_long_r/activation	add_brev_r/activation	add_mag1_r/activation	add_mag2_r/activation	add_mag3_r/activation	tfl_r/activation	pect_r/activation	grac_r/activation	glut_max1_r/activation	glut_max2_r/activation	glut_max3_r/activation	iliacus_r/activation	psoas_r/activation	quad_fem_r/activation	gem_r/activation	peri_r/activation	rect_fem_r/activation	vas_med_r/activation	vas_int_r/activation	vas_lat_r/activation	med_gas_r/activation	lat_gas_r/activation	soleus_r/activation	tib_post_r/activation	flex_dig_r/activation	flex_hal_r/activation	tib_ant_r/activation	per_brev_r/activation	per_long_r/activation	per_tert_r/activation	ext_dig_r/activation	ext_hal_r/activation	ercspn_r/activation	intobl_r/activation	extobl_r/activation	
          0.00000000	         -2.93017623	         -2.34697252	          5.60546198	          0.00000000	          0.91857955	         -0.00115525	        -16.52425293	         -1.53549886	          6.84566218	         29.37643972	          3.66933268	         -1.80332813	         -9.34571188	        -11.47722503	         -3.33190813	          5.12552804	         10.06802384	         -4.62761914	          6.73594914	         -0.04689283	          8.23841829	         -0.83555936	         -1.96870663	          0.47113603	         -2.14426388	          5.07816115	        -13.45702571	         16.92831349	         -5.00153987	        -13.45828502	          6.98844344	         35.09291300	         15.98031866	         86.51662706	         86.51662706	          0.26037915	          0.10056940	          0.07530182	          0.29163154	          0.20181454	          0.10501155	          0.05000539	          0.05000120	          0.05000083	          0.05656752	          0.10754616	          0.07839659	          0.06093470	          0.05000867	          0.05002018	          0.05000399	          0.29799075	          0.06249942	          0.05001368	          0.05003196	          0.05001624	          0.05001146	          0.39427025	          0.59968122	          0.05000221	          0.05000294	          0.05000147	          0.24087437	          0.05066760	          0.05006611	          0.05005607	          0.28363104	          0.38591860	          0.35082417	          0.26305034	          0.24294979	          0.32465387	          0.05000021	          0.05954219	          0.13542699	          0.05000110	          0.05000031	          0.05000108	          0.05000010	          0.05000219	          0.05126754	          0.05954376	          0.05954385	          0.05000088	          0.05954406	          0.05954400	          0.05953602	          0.11705708	          0.05954481	          0.20613677	          0.05000093	          0.05000130	          0.12113579	          0.29115727	          0.12756099	          0.16282161	          0.11044742	          0.05000055	          0.07310299	          0.09872301	          0.05000732	          0.05252576	          0.15024364	          0.05000322	          0.05000069	          0.20231061	          0.26335179	          0.13464220	          0.05000618	          0.14349637	          0.14144664	          0.12724546	          0.05283101	          0.05002495	          0.05636508	          0.05000013	          0.05000190	          0.05000099	          0.53802425	          0.26305424	          0.16744748	          0.24863706	          0.46273499	          0.22098214	          0.05609373	          0.11512863	          0.10189032	
          0.01145271	         -2.92835987	         -2.42882462	          5.88123513	          0.01734541	          0.91757105	         -0.00096177	        -16.42721842	         -1.83818600	          6.65061797	         28.68204467	          4.01576297	         -1.56082220	        -11.19795458	        -11.61506347	         -3.89029243	          4.44635884	         11.07231694	         -5.01563160	          5.73256627	         -0.00745699	          9.99099992	         -0.84095736	         -1.76564855	          0.66775197	         -2.21390757	          4.75715269	        -13.46771592	         17.20332891	         -5.90561616	        -13.45770259	          6.76275684	         36.29862102	         15.61262248	         86.51662706	         86.51662706	          0.21864477	          0.08444985	          0.06323361	          0.24488818	          0.16946720	          0.08818009	          0.05000843	          0.05000137	          0.05000172	          0.05000051	          0.09030934	          0.16165657	          0.05954281	          0.05954907	          0.05954284	          0.05954438	          0.25022823	          0.07437515	          0.05007303	          0.05001670	          0.05001029	          0.05003826	          0.33107602	          0.56491624	          0.05185857	          0.05971850	          0.05955556	          0.20226654	          0.05970703	          0.15552916	          0.16746169	          0.23816961	          0.32406225	          0.29862760	          0.22088895	          0.20401046	          0.27261883	          0.05000008	          0.05000046	          0.14370977	          0.05000032	          0.05000008	          0.05000043	          0.05740575	          0.05965469	          0.05954404	          0.05000005	          0.05000020	          0.10285062	          0.05000021	          0.05000023	          0.05000028	          0.09829499	          0.05000120	          0.17309652	          0.05000042	          0.05000716	          0.10172053	          0.25998418	          0.31325751	          0.20745635	          0.11634852	          0.05000207	          0.07084078	          0.12964478	          0.06752220	          0.08567165	          0.12616255	          0.05000035	          0.05001353	          0.42013859	          0.22114088	          0.11306138	          0.05955705	          0.15204069	          0.15305978	          0.12992116	          0.05000110	          0.05000362	          0.05000014	          0.06449302	          0.05002631	          0.05954530	          0.45238317	          0.27939649	          0.19739074	          0.20878521	          0.43769842	          0.18556257	          0.05000003	          0.09667540	          0.08555897	
          0.02290543	         -2.92251428	         -2.51273981	          6.12365174	          0.03499275	          0.91662383	         -0.00078846	        -16.26330330	         -2.13802005	          6.45131608	         27.86452154	          4.27843298	         -1.29287606	        -13.14214826	        -12.05063384	         -4.58321560	          3.90934276	         12.02620909	         -5.41708285	          4.52941495	         -0.22145933	         11.88229670	         -0.86524782	         -1.54155866	          0.87578209	         -2.27170950	          4.35355725	        -13.47591165	         17.39803426	         -6.83452728	        -13.46438297	          6.59501807	         37.48758925	         15.29572403	         86.51662706	         86.51662706	          0.34729016	          0.07091402	          0.05323425	          0.31210094	          0.14230487	          0.07404644	          0.05000513	          0.05000073	          0.05000064	          0.05000104	          0.07584519	          0.13574592	          0.05000156	          0.05000495	          0.05000332	          0.05000186	          0.22915819	          0.06246216	          0.05000571	          0.05004390	          0.05001176	          0.05000315	          0.27801465	          0.53559874	          0.05000419	          0.05014803	          0.05001007	          0.16984659	          0.05013736	          0.13060075	          0.14062063	          0.19999489	          0.27212037	          0.25076244	          0.18548418	          0.17131134	          0.22892282	          0.05000023	          0.09266686	          0.17299456	          0.05000066	          0.05000147	          0.05000105	          0.05126294	          0.05009303	          0.05000026	          0.23804544	          0.24046935	          0.29021217	          0.35482115	          0.21738847	          0.19441137	          0.09415203	          0.05103964	          0.14695791	          0.08443249	          0.05005388	          0.08541654	          0.21831314	          0.26304773	          0.17420498	          0.11516095	          0.05000134	          0.05953002	          0.10886756	          0.13005529	          0.10363789	          0.10594114	          0.05634507	          0.05000184	          0.35279736	          0.18569598	          0.22775965	          0.05001110	          0.12767126	          0.12852702	          0.10909710	          0.05000150	          0.05000357	          0.05002750	          0.05415602	          0.05000121	          0.05000239	          0.54913563	          0.34044991	          0.18126621	          0.33720093	          0.51178386	          0.21656751	          0.06125511	          0.11536431	          0.07184528	
          0.03435814	         -2.91501233	         -2.58794550	          6.32817624	          0.05271398	          0.91578355	         -0.00059632	        -15.99193771	         -2.42267206	          6.26652605	         27.00286209	          4.51962164	         -1.02589353	        -15.22127294	        -12.45341273	         -5.41850803	          3.38892437	         12.93284114	         -5.82358663	          3.17008213	         -0.22616610	         13.80245450	         -0.81538794	         -1.32095403	          1.08390641	         -2.31982233	          3.90658170	        -13.48927606	         17.53930929	         -7.73873027	        -13.47170645	          6.48731301	         38.63781044	         15.00574037	         86.51662706	         86.51662706	          0.29179514	          0.05954773	          0.05000018	          0.26207877	          0.11949597	          0.06217814	          0.05000837	          0.05000066	          0.05000054	          0.05000064	          0.06368943	          0.14608124	          0.05000972	          0.05000339	          0.05000499	          0.05000329	          0.19242897	          0.06830900	          0.05000216	          0.05000378	          0.05000241	          0.05000164	          0.23345362	          0.49295337	          0.05000031	          0.05000115	          0.05000037	          0.14262299	          0.10939961	          0.10967079	          0.11808480	          0.16793896	          0.22850393	          0.21056929	          0.15575419	          0.14385330	          0.19223050	          0.09524644	          0.14524029	          0.15596969	          0.05000203	          0.12758913	          0.05000234	          0.07943996	          0.05000004	          0.05000014	          0.33478707	          0.33784806	          0.37120091	          0.29794972	          0.18254661	          0.20060986	          0.08153859	          0.09059224	          0.12340371	          0.07090044	          0.05000146	          0.07172579	          0.18332130	          0.22088663	          0.17365051	          0.15934072	          0.05000085	          0.05000744	          0.10061052	          0.22811267	          0.17711002	          0.15637622	          0.05000025	          0.05000028	          0.29624987	          0.15593217	          0.19125543	          0.05000017	          0.14755649	          0.16189775	          0.11715080	          0.05000008	          0.05000016	          0.05000002	          0.05000005	          0.05000035	          0.05000032	          0.60859881	          0.28698302	          0.15646020	          0.56842554	          0.54589721	          0.31027554	          0.08188475	          0.09687333	          0.06032967	
